<?xml version="1.0" encoding="UTF-8"?>
<svg width="87px" height="61px" viewBox="0 0 87 61" version="1.1" xmlns="http://www.w3.org/2000/svg" xmlns:xlink="http://www.w3.org/1999/xlink">
    <!-- Generator: Sketch 47 (45396) - http://www.bohemiancoding.com/sketch -->
    <title>feature / clouds-of-storm</title>
    <desc>Created with Sketch.</desc>
    <defs></defs>
    <g id="Symbols" stroke="none" stroke-width="1" fill="none" fill-rule="evenodd">
        <g id="feature-/-clouds-of-storm" fill-rule="nonzero" fill="#151A7F">
            <g id="clouds-of-storm" transform="translate(0.000000, 6.000000)">
                <path d="M87,38.8020833 C87,44.9381944 82.1307187,49.9131944 76.125,49.9131944 L76.125,50 L29.90625,50 C22.3977422,50 16.3125,43.7826389 16.3125,36.1111111 C16.3125,29.3836806 20.9960566,23.7737847 27.2140078,22.4989583 C27.2140078,22.4067708 27.1875,22.3199653 27.1875,22.2222222 C27.1875,13.0154514 34.488873,5.55555556 43.5,5.55555556 C49.8615352,5.55555556 55.3095703,9.30989583 58.0018125,14.7352431 C59.4249082,14.2251736 60.9329648,13.8888889 62.53125,13.8888889 C69.9813047,13.8888889 76.0135312,20.0086806 76.1090273,27.6041667 L76.125,27.6041667 L76.125,27.6909722 C82.1307187,27.6909722 87,32.6659722 87,38.8020833 Z M22.0738711,18.3920139 C23.3323125,11.0026042 28.2175664,4.92083333 34.7437559,1.9640625 C32.4870234,0.732465278 29.9327578,0 27.1875,0 C18.176373,0 10.875,7.45989583 10.875,16.6666667 C10.875,16.7644097 10.9015078,16.8512153 10.9015078,16.9434028 C4.68355664,18.2184028 0,23.828125 0,30.5555556 C0,37.9286458 5.63936719,43.8965278 12.7336055,44.3576389 C11.5759277,41.8456597 10.875,39.0678819 10.875,36.1111111 C10.875,28.3746528 15.3939023,21.484375 22.0738711,18.3920139 Z" id="Shape"></path>
            </g>
        </g>
    </g>
</svg>