<?xml version="1.0" encoding="UTF-8"?>
<svg width="78px" height="65px" viewBox="0 0 78 65" version="1.1" xmlns="http://www.w3.org/2000/svg" xmlns:xlink="http://www.w3.org/1999/xlink">
    <!-- Generator: Sketch 47 (45396) - http://www.bohemiancoding.com/sketch -->
    <title>calendar-2</title>
    <desc>Created with Sketch.</desc>
    <defs></defs>
    <g id="Symbols" stroke="none" stroke-width="1" fill="none" fill-rule="evenodd">
        <g id="feature-/-calendar" transform="translate(-5.000000, 3.000000)" fill-rule="nonzero" fill="#151A7F">
            <g id="calendar-2" transform="translate(5.000000, -3.000000)">
                <path d="M0,18 L0,65 L78,65 L78,18 L0,18 Z M19.8779648,55.1118804 C19.8779648,55.5338215 19.5368672,55.875713 19.1162461,55.875713 L11.953957,55.875713 C11.5333359,55.875713 11.1922383,55.5336688 11.1922383,55.1118804 L11.1922383,47.8631082 C11.1922383,47.4413198 11.5333359,47.0992755 11.953957,47.0992755 L19.1162461,47.0992755 C19.5368672,47.0992755 19.8779648,47.4413198 19.8779648,47.8631082 L19.8779648,55.1118804 Z M19.8779648,38.5128795 C19.8779648,38.9348207 19.5368672,39.2767122 19.1162461,39.2767122 L11.953957,39.2767122 C11.5333359,39.2767122 11.1922383,38.9346679 11.1922383,38.5128795 L11.1922383,31.2641073 C11.1922383,30.8423189 11.5333359,30.5002747 11.953957,30.5002747 L19.1162461,30.5002747 C19.5368672,30.5002747 19.8779648,30.8423189 19.8779648,31.2641073 L19.8779648,38.5128795 Z M35.5212305,55.1118804 C35.5212305,55.5338215 35.1802852,55.875713 34.7595117,55.875713 L27.5972227,55.875713 C27.1766016,55.875713 26.8355039,55.5336688 26.8355039,55.1118804 L26.8355039,47.8631082 C26.8355039,47.4413198 27.1766016,47.0992755 27.5972227,47.0992755 L34.7595117,47.0992755 C35.1801328,47.0992755 35.5212305,47.4413198 35.5212305,47.8631082 L35.5212305,55.1118804 Z M35.5212305,38.5128795 C35.5212305,38.9348207 35.1802852,39.2767122 34.7595117,39.2767122 L27.5972227,39.2767122 C27.1766016,39.2767122 26.8355039,38.9346679 26.8355039,38.5128795 L26.8355039,31.2641073 C26.8355039,30.8423189 27.1766016,30.5002747 27.5972227,30.5002747 L34.7595117,30.5002747 C35.1801328,30.5002747 35.5212305,30.8423189 35.5212305,31.2641073 L35.5212305,38.5128795 Z M51.1644961,55.1118804 C51.1644961,55.5338215 50.8235508,55.875713 50.4027773,55.875713 L43.2404883,55.875713 C42.8198672,55.875713 42.4787695,55.5336688 42.4787695,55.1118804 L42.4787695,47.8631082 C42.4787695,47.4413198 42.8198672,47.0992755 43.2404883,47.0992755 L50.4027773,47.0992755 C50.8233984,47.0992755 51.1644961,47.4413198 51.1644961,47.8631082 L51.1644961,55.1118804 Z M51.1644961,38.5128795 C51.1644961,38.9348207 50.8235508,39.2767122 50.4027773,39.2767122 L43.2404883,39.2767122 C42.8198672,39.2767122 42.4787695,38.9346679 42.4787695,38.5128795 L42.4787695,31.2641073 C42.4787695,30.8423189 42.8198672,30.5002747 43.2404883,30.5002747 L50.4027773,30.5002747 C50.8233984,30.5002747 51.1644961,30.8423189 51.1644961,31.2641073 L51.1644961,38.5128795 Z M66.8077617,55.1118804 C66.8077617,55.5338215 66.4668164,55.875713 66.046043,55.875713 L58.8837539,55.875713 C58.4631328,55.875713 58.1220352,55.5336688 58.1220352,55.1118804 L58.1220352,47.8631082 C58.1220352,47.4413198 58.4631328,47.0992755 58.8837539,47.0992755 L66.046043,47.0992755 C66.4666641,47.0992755 66.8077617,47.4413198 66.8077617,47.8631082 L66.8077617,55.1118804 Z M66.8077617,38.5128795 C66.8077617,38.9348207 66.4668164,39.2767122 66.046043,39.2767122 L58.8837539,39.2767122 C58.4631328,39.2767122 58.1220352,38.9346679 58.1220352,38.5128795 L58.1220352,31.2641073 C58.1220352,30.8423189 58.4631328,30.5002747 58.8837539,30.5002747 L66.046043,30.5002747 C66.4666641,30.5002747 66.8077617,30.8423189 66.8077617,31.2641073 L66.8077617,38.5128795 Z" id="Shape"></path>
                <path d="M78,4.1510582 L67.8371484,4.1510582 L67.8371484,2.2526455 C67.8371484,1.85071314 67.7286797,1.4742006 67.5406875,1.14748102 C67.1468789,0.462939959 66.4000898,0 65.5420898,0 C64.6840898,0 63.9373008,0.462939959 63.5434922,1.14748102 C63.3555,1.4742006 63.2470312,1.85071314 63.2470312,2.2526455 L63.2470312,4.1510582 L51.8335898,4.1510582 L51.8335898,2.2526455 C51.8335898,1.85071314 51.7251211,1.4742006 51.5371289,1.14748102 C51.1433203,0.462939959 50.3965312,0 49.5385312,0 C48.6805312,0 47.9337422,0.462939959 47.5399336,1.14748102 C47.3519414,1.4742006 47.2434727,1.85071314 47.2434727,2.2526455 L47.2434727,4.1510582 L30.7562227,4.1510582 L30.7562227,2.2526455 C30.7562227,1.85071314 30.6477539,1.4742006 30.4597617,1.14748102 C30.0659531,0.462939959 29.3191641,0 28.4611641,0 C27.6031641,0 26.856375,0.462939959 26.4625664,1.14748102 C26.2745742,1.4742006 26.1661055,1.85071314 26.1661055,2.2526455 L26.1661055,4.1510582 L14.7528164,4.1510582 L14.7528164,2.2526455 C14.7528164,1.85071314 14.6443477,1.4742006 14.4563555,1.14748102 C14.0625469,0.462939959 13.3157578,0 12.4577578,0 C11.5997578,0 10.8529687,0.462939959 10.4591602,1.14748102 C10.271168,1.4742006 10.1626992,1.85071314 10.1626992,2.2526455 L10.1626992,4.15090867 L0,4.1510582 L0,13 L78,13 L78,4.1510582 Z" id="Shape"></path>
            </g>
        </g>
    </g>
</svg>