<svg width="113" height="74" xmlns="http://www.w3.org/2000/svg"><g fill="#151A7F" fill-rule="evenodd"><path d="M0 0h60l.498 40H33.75v2.5h7.5a1.25 1.25 0 1 1 0 2.5h-22.5a1.25 1.25 0 1 1 0-2.5h7.5V40H0V0zm28.75 42.5h2.5V40h-2.5v2.5z"/><path d="M55.455 37H4.545C3.141 37 2 35.878 2 34.5v-30C2 3.122 3.141 2 4.545 2h50.91C56.859 2 58 3.122 58 4.5v30c0 1.378-1.141 2.5-2.545 2.5z"/><g><path d="M67.43 10.681h45.36v57.471H95.56v2.857h8.6a1.43 1.43 0 0 1 1.434 1.429 1.43 1.43 0 0 1-1.434 1.428h-25.8a1.43 1.43 0 0 1-1.432-1.428c0-.79.64-1.429 1.433-1.429h8.6v-2.857H67.43v-57.47zM89.828 71.01h2.867v-2.857h-2.867v2.857z"/><path d="M106.453 65.407H73.568c-.987 0-3.188-.398-3.188-2.428V16.857c0-2.03 2.201-3.007 3.188-3.007h32.885c.986 0 3.265.977 3.265 3.007v46.122c0 2.03-2.279 2.428-3.265 2.428z"/></g></g></svg>