<?xml version="1.0" encoding="UTF-8"?>
<svg width="119px" height="72px" viewBox="0 0 119 72" version="1.1" xmlns="http://www.w3.org/2000/svg" xmlns:xlink="http://www.w3.org/1999/xlink">
    <!-- Generator: Sketch 47 (45396) - http://www.bohemiancoding.com/sketch -->
    <title>multi-displays</title>
    <desc>Created with Sketch.</desc>
    <defs></defs>
    <g id="Symbols" stroke="none" stroke-width="1" fill="none" fill-rule="evenodd">
        <g id="feature-/-multi-display" transform="translate(13.000000, 5.000000)">
            <g id="multi-displays" transform="translate(-13.000000, -5.000000)">
                <g id="Layer_1-Copy">
                    <path d="M0,0 L60,0 C60,0 60,39.999974 60,39.999974 L33.75,39.999974 L33.75,42.4999284 L41.25,42.4999284 C41.9409375,42.4999284 42.5000391,43.0590285 42.5000391,43.7499642 C42.5000391,44.4408999 41.9409375,45 41.25,45 L18.75,45 C18.0590625,45 17.4999609,44.4408999 17.4999609,43.7499642 C17.4999609,43.0590285 18.0590625,42.4999284 18.75,42.4999284 L26.25,42.4999284 L26.25,39.999974 C26.25,39.999974 0.353069793,39.999974 0,39.999974 L0,0 Z M28.7500781,42.4999284 L31.2500391,42.4999284 L31.2500391,39.999974 L28.7500781,39.999974 L28.7500781,42.4999284 Z" id="Combined-Shape" fill="#151A7F"></path>
                    <rect id="Rectangle" stroke="#FFFFFF" x="0.5" y="0.5" width="59" height="39"></rect>
                    <path d="M55.4545834,37 L4.54541658,37 C3.14092126,37 2,35.8781616 2,34.5000335 L2,4.49996652 C2,3.12183844 3.14104058,2 4.54541658,2 L55.4545834,2 C56.8590787,2 58,3.12183844 58,4.49996652 L58,34.5000335 C58,35.8781616 56.8589594,37 55.4545834,37 Z" id="Path" fill="#151A7F"></path>
                    <polygon id="Shape" fill="#FFFFFF" fill-rule="nonzero" points="21 9 39.5714286 19.1701394 21 29.3401361"></polygon>
                </g>
                <g id="Layer_1-Copy-2" transform="translate(59.000000, 13.000000)">
                    <path d="M0,0 L60,0 C60,0 60,39.999974 60,39.999974 L33.75,39.999974 L33.75,42.4999284 L41.25,42.4999284 C41.9409375,42.4999284 42.5000391,43.0590285 42.5000391,43.7499642 C42.5000391,44.4408999 41.9409375,45 41.25,45 L18.75,45 C18.0590625,45 17.4999609,44.4408999 17.4999609,43.7499642 C17.4999609,43.0590285 18.0590625,42.4999284 18.75,42.4999284 L26.25,42.4999284 L26.25,39.999974 C26.25,39.999974 0.353069793,39.999974 0,39.999974 L0,0 Z M28.7500781,42.4999284 L31.2500391,42.4999284 L31.2500391,39.999974 L28.7500781,39.999974 L28.7500781,42.4999284 Z" id="Combined-Shape" fill="#151A7F"></path>
                    <rect id="Rectangle" stroke="#FFFFFF" x="0.5" y="0.5" width="59" height="39"></rect>
                    <path d="M55.4545834,37 L4.54541658,37 C3.14092126,37 2,35.8781616 2,34.5000335 L2,4.49996652 C2,3.12183844 3.14104058,2 4.54541658,2 L55.4545834,2 C56.8590787,2 58,3.12183844 58,4.49996652 L58,34.5000335 C58,35.8781616 56.8589594,37 55.4545834,37 Z" id="Path" fill="#151A7F"></path>
                    <polygon id="Shape" fill="#FFFFFF" fill-rule="nonzero" points="21 9 39.5714286 19.1701394 21 29.3401361"></polygon>
                </g>
                <g id="Layer_1-Copy-3" transform="translate(26.000000, 27.000000)">
                    <path d="M0,0 L60,0 C60,0 60,39.999974 60,39.999974 L33.75,39.999974 L33.75,42.4999284 L41.25,42.4999284 C41.9409375,42.4999284 42.5000391,43.0590285 42.5000391,43.7499642 C42.5000391,44.4408999 41.9409375,45 41.25,45 L18.75,45 C18.0590625,45 17.4999609,44.4408999 17.4999609,43.7499642 C17.4999609,43.0590285 18.0590625,42.4999284 18.75,42.4999284 L26.25,42.4999284 L26.25,39.999974 C26.25,39.999974 0.353069793,39.999974 0,39.999974 L0,0 Z M28.7500781,42.4999284 L31.2500391,42.4999284 L31.2500391,39.999974 L28.7500781,39.999974 L28.7500781,42.4999284 Z" id="Combined-Shape" fill="#151A7F"></path>
                    <rect id="Rectangle" stroke="#FFFFFF" x="0.5" y="0.5" width="59" height="39"></rect>
                    <path d="M55.4545834,37 L4.54541658,37 C3.14092126,37 2,35.8781616 2,34.5000335 L2,4.49996652 C2,3.12183844 3.14104058,2 4.54541658,2 L55.4545834,2 C56.8590787,2 58,3.12183844 58,4.49996652 L58,34.5000335 C58,35.8781616 56.8589594,37 55.4545834,37 Z" id="Path" fill="#151A7F"></path>
                    <polygon id="Shape" fill="#FFFFFF" fill-rule="nonzero" points="21 9 39.5714286 19.1701394 21 29.3401361"></polygon>
                </g>
            </g>
        </g>
    </g>
</svg>