<?xml version="1.0" encoding="UTF-8"?>
<svg width="87px" height="61px" viewBox="0 0 87 61" version="1.1" xmlns="http://www.w3.org/2000/svg" xmlns:xlink="http://www.w3.org/1999/xlink">
    <!-- Generator: Sketch 47 (45396) - http://www.bohemiancoding.com/sketch -->
    <title>wifi-signal</title>
    <desc>Created with Sketch.</desc>
    <defs></defs>
    <g id="Symbols" stroke="none" stroke-width="1" fill="none" fill-rule="evenodd">
        <g id="feature-/-wifi-signal" fill-rule="nonzero" fill="#151A7F">
            <g id="wifi-signal">
                <path d="M86.8341428,17.4450367 C86.8007427,17.3976036 86.762762,17.3531236 86.7205825,17.3123348 C75.1757915,6.14839724 59.8264433,0 43.5000945,0 C27.1747,0 11.8266878,6.14710529 0.282469385,17.3099355 C0.103063154,17.4821342 0,17.717823 0,17.9655086 C0,18.2102411 0.100391146,18.4450072 0.27960652,18.6181287 L6.5994773,24.7297976 C6.77850182,24.9029191 7.02108195,25 7.27415925,25 C7.52723655,25 7.77000753,24.9027345 7.94884119,24.7297976 C17.4604252,15.5312874 30.0860433,10.4657301 43.5000945,10.4657301 C56.9139549,10.4657301 69.539573,15.5314719 79.0513478,24.729613 C79.2303723,24.9027345 79.4729524,24.9998154 79.7258389,24.9998154 C79.9789162,24.9998154 80.221878,24.9025499 80.4005208,24.729613 L86.7203916,18.6179441 C86.8994161,18.4448226 86.9999981,18.2102411 86.9999981,17.965324 C87.0003799,17.7798367 86.9421683,17.5985944 86.8341428,17.4450367 Z" id="Shape"></path>
                <path d="M44.4998932,16 C32.7187018,16 21.6306444,20.6354419 13.2779134,29.052353 C12.9073306,29.4259661 12.9073306,30.0316286 13.2781032,30.4050504 L19.5449772,36.7197424 C19.7230543,36.8991838 19.9643508,37 20.2160889,37 C20.467827,37 20.7093134,36.8991838 20.8872007,36.7197424 C27.204764,30.3537814 35.5905286,26.847596 44.4998932,26.847596 C53.4096376,26.847596 61.7954021,30.3537814 68.1123959,36.7197424 C68.2904731,36.8991838 68.5319594,37 68.7836975,37 C69.0354356,37 69.2769219,36.8991838 69.4548093,36.7197424 L75.7218731,30.4050504 C75.8999502,30.225609 76,29.982464 76,29.728606 C76,29.4747481 75.9003299,29.2316031 75.7218731,29.0521617 C67.369142,20.6356332 56.2810846,16 44.4998932,16 Z" id="Shape"></path>
                <path d="M43.5000937,33 C36.2456442,33 29.4178278,35.8748097 24.2746122,41.0953196 C24.098598,41.2737823 24,41.5156012 24,41.7682648 C24,42.0205479 24.0984105,42.2625571 24.2746122,42.4408295 L30.4622916,48.7212709 C30.6381184,48.8997336 30.8763656,49 31.1249225,49 C31.3734794,49 31.611914,48.8997336 31.7875534,48.7212709 C34.9215071,45.5403349 39.0809922,43.7886225 43.5000937,43.7886225 C47.9191952,43.7886225 52.0790553,45.5407154 55.2128215,48.7212709 C55.3886483,48.8997336 55.6268955,49 55.875265,49 C56.1236344,49 56.3622565,48.8997336 56.5378959,48.7212709 L62.7255752,42.4408295 C63.0914749,42.0692542 63.0914749,41.466895 62.7255752,41.0957002 C57.5825471,35.8748097 50.7547307,33 43.5000937,33 Z" id="Shape"></path>
                <path d="M43.0000822,52 C40.4590484,52 38.0708035,52.8519791 36.2751095,54.3989426 C35.9082655,54.7150359 35.9082655,55.2272915 36.2752975,55.543223 L42.3357412,60.7628896 C42.5120218,60.914705 42.7508839,61 43.0000822,61 C43.2492806,61 43.4885185,60.914705 43.6644232,60.7628896 L49.724867,55.543223 C50.091711,55.2271297 50.091711,54.714874 49.724867,54.3987807 C47.928985,52.8519791 45.5407402,52 43.0000822,52 Z" id="Shape"></path>
            </g>
        </g>
    </g>
</svg>