<?xml version="1.0" encoding="UTF-8"?>
<svg width="113px" height="74px" viewBox="0 0 113 74" version="1.1" xmlns="http://www.w3.org/2000/svg" xmlns:xlink="http://www.w3.org/1999/xlink">
    <!-- Generator: Sketch 47 (45396) - http://www.bohemiancoding.com/sketch -->
    <title>dispalys</title>
    <desc>Created with Sketch.</desc>
    <defs></defs>
    <g id="Symbols" stroke="none" stroke-width="1" fill="none" fill-rule="evenodd">
        <g id="feature-/-clandscape-portrait" transform="translate(13.000000, 5.000000)" fill="#151A7F">
            <g id="dispalys" transform="translate(-13.000000, -5.000000)">
                <g id="Layer_1">
                    <path d="M0,0 L60,0 C60,0 60.4978205,39.999974 60.4978205,39.999974 L33.75,39.999974 L33.75,42.4999284 L41.25,42.4999284 C41.9409375,42.4999284 42.5000391,43.0590285 42.5000391,43.7499642 C42.5000391,44.4408999 41.9409375,45 41.25,45 L18.75,45 C18.0590625,45 17.4999609,44.4408999 17.4999609,43.7499642 C17.4999609,43.0590285 18.0590625,42.4999284 18.75,42.4999284 L26.25,42.4999284 L26.25,39.999974 C26.25,39.999974 0.353069793,39.999974 0,39.999974 L0,0 Z M28.7500781,42.4999284 L31.2500391,42.4999284 L31.2500391,39.999974 L28.7500781,39.999974 L28.7500781,42.4999284 Z" id="Combined-Shape"></path>
                    <path d="M55.4545834,37 L4.54541658,37 C3.14092126,37 2,35.8781616 2,34.5000335 L2,4.49996652 C2,3.12183844 3.14104058,2 4.54541658,2 L55.4545834,2 C56.8590787,2 58,3.12183844 58,4.49996652 L58,34.5000335 C58,35.8781616 56.8589594,37 55.4545834,37 Z" id="Path"></path>
                </g>
                <g id="monitor" transform="translate(67.000000, 10.000000)">
                    <g id="Layer_1">
                        <path d="M0.430647992,0.681121183 L45.7903344,0.681121183 L45.7903344,58.1524461 L28.5605685,58.1524461 L28.5605685,61.0092653 L37.1604227,61.0092653 C37.9526843,61.0092653 38.5937766,61.6481761 38.5937766,62.4377418 C38.5937766,63.2273076 37.9526843,63.8662184 37.1604227,63.8662184 L11.3608601,63.8662184 C10.5685985,63.8662184 9.92750623,63.2273076 9.92750623,62.4377418 C9.92750623,61.6481761 10.5685985,61.0092653 11.3608601,61.0092653 L19.9607143,61.0092653 L19.9607143,58.1524461 L0.430647992,58.1524461 L0.430647992,0.681121183 Z M22.8274219,61.0092653 L25.6939952,61.0092653 L25.6939952,58.1524461 L22.8274219,58.1524461 L22.8274219,61.0092653 Z" id="Combined-Shape"></path>
                        <path d="M39.4528587,55.4070892 L6.56764992,55.4070892 C5.58103083,55.4070892 3.37959184,55.0089491 3.37959184,52.9788694 L3.37959184,6.85679215 C3.37959184,4.82671243 5.58111465,3.84962406 6.56764992,3.84962406 L39.4528587,3.84962406 C40.4394778,3.84962406 42.718042,4.82671243 42.718042,6.85679215 L42.718042,52.9788694 C42.718042,55.0089491 40.439394,55.4070892 39.4528587,55.4070892 Z" id="Path"></path>
                    </g>
                </g>
            </g>
        </g>
    </g>
</svg>