<?xml version="1.0" encoding="UTF-8"?>
<svg width="80px" height="59px" viewBox="0 0 80 59" version="1.1" xmlns="http://www.w3.org/2000/svg" xmlns:xlink="http://www.w3.org/1999/xlink">
    <!-- Generator: Sketch 47 (45396) - http://www.bohemiancoding.com/sketch -->
    <title>sssp</title>
    <desc>Created with Sketch.</desc>
    <defs>
        <linearGradient x1="28.2637695%" y1="21.3227183%" x2="100%" y2="21.3227183%" id="linearGradient-1">
            <stop stop-color="#666AB8" offset="0%"></stop>
            <stop stop-color="#151A7F" offset="100%"></stop>
        </linearGradient>
        <linearGradient x1="3.78623946%" y1="75.8281257%" x2="100%" y2="75.8281231%" id="linearGradient-2">
            <stop stop-color="#03074E" offset="0%"></stop>
            <stop stop-color="#3239BC" offset="100%"></stop>
        </linearGradient>
    </defs>
    <g id="Symbols" stroke="none" stroke-width="1" fill="none" fill-rule="evenodd">
        <g id="feature-/-sssp" transform="translate(-3.000000, -1.000000)">
            <g id="sssp" transform="translate(3.000000, 1.000000)">
                <g id="figure">
                    <path d="M79.6719431,4.9142669e-14 C80.8338816,4.6372037 73.4624955,9.46882794 70.6680166,10.7944167 C61.1887263,10.7944167 19.6788869,10.7944167 17.3432753,10.7944167 C11.4402851,14.0989857 10.2953797,18.3801951 10.2168564,21.2286164 C10.1383332,24.0770377 10.874601,29.8115169 18.0562022,32.5705489 C21.7084519,32.5705489 58.3359573,32.5705489 59.4068063,32.5705489 C61.5515925,33.6935996 62.6184278,35.5205818 62.6194442,37.805266 C62.6204605,40.0899502 61.3250298,41.555771 59.4068063,42.4572329 C58.8646909,42.4572329 22.6853625,42.5002966 18.4423601,42.5694085 C13.4830806,42.4572329 9.56626027,40.5099256 5.83502209,37.5 C4.18715477,36.1706158 1.62303904,33.0423648 0.957593189,30.5 C0.292147334,27.9576352 0.0478651648,24.234948 0.040586317,21.6579094 C0.0333074692,19.0808708 -0.00201923816,16.7988152 0.957593189,13.0802152 C1.91720562,9.36161516 4.80668878,6.4205471 7.21468756,4.6372037 C9.62268634,2.8538603 13.6135045,0.341772238 18.0562022,4.9142669e-14 C21.2387127,3.90643867e-14 72.6952617,-3.54781775e-17 79.6719431,4.9142669e-14 Z" id="Path-6" fill="#151A7F"></path>
                    <path d="M79.6773085,-2.69993369e-17 C80.839247,4.6372037 73.355848,9.46725364 70.5613691,10.7928424 C64.2418422,10.7928424 54.9611295,10.7928424 42.7192311,10.7928424 L33.5395846,-1.02839037e-15 C59.6469463,-3.31462278e-14 75.0261876,-3.28124308e-14 79.6773085,-2.69993369e-17 Z" id="Path-6-Copy-3" fill="url(#linearGradient-1)"></path>
                    <path d="M17.2555403,10.7987534 C4.8332261,17.9387749 10.4139711,32.9325267 21.0521691,32.5238821 C21.4934899,32.5069297 22.0184425,32.5959848 22.4759774,32.5238821 C26.1282271,32.5238821 58.3359573,32.5238821 59.4068063,32.5238821 C61.5515925,33.6469329 62.6184278,35.5205818 62.6194442,37.805266 C62.6204605,40.0899502 61.3250298,41.8120439 59.4068063,42.7135058 C58.8646909,42.7135058 23.0929945,42.5805698 18.7887746,42.5805698 C16.197868,42.4390393 15.0212533,41.9486911 14.576465,41.8196417 C11.5537869,40.9426519 6.68034216,36.7111518 5.53559688,30.5 C3.91755406,21.7208334 6.67831313,14.4310935 17.2555403,10.7987534 Z" id="Path-6-Copy-2" fill="url(#linearGradient-2)"></path>
                </g>
                <g id="figure-copy" transform="translate(40.000000, 37.500000) scale(-1, -1) translate(-40.000000, -37.500000) translate(0.000000, 16.000000)">
                    <path d="M79.6719431,4.9142669e-14 C80.8338816,4.6372037 73.4624955,9.46882794 70.6680166,10.7944167 C61.1887263,10.7944167 19.6788869,10.7944167 17.3432753,10.7944167 C11.4402851,14.0989857 10.2953797,18.3801951 10.2168564,21.2286164 C10.1383332,24.0770377 10.874601,29.8115169 18.0562022,32.5705489 C21.7084519,32.5705489 58.3359573,32.5705489 59.4068063,32.5705489 C61.5515925,33.6935996 62.6184278,35.5205818 62.6194442,37.805266 C62.6204605,40.0899502 61.3250298,41.555771 59.4068063,42.4572329 C58.8646909,42.4572329 22.6853625,42.5002966 18.4423601,42.5694085 C13.4830806,42.4572329 9.56626027,40.5099256 5.83502209,37.5 C4.18715477,36.1706158 1.62303904,33.0423648 0.957593189,30.5 C0.292147334,27.9576352 0.0478651648,24.234948 0.040586317,21.6579094 C0.0333074692,19.0808708 -0.00201923816,16.7988152 0.957593189,13.0802152 C1.91720562,9.36161516 4.80668878,6.4205471 7.21468756,4.6372037 C9.62268634,2.8538603 13.6135045,0.341772238 18.0562022,4.9142669e-14 C21.2387127,3.90643867e-14 72.6952617,-3.54781775e-17 79.6719431,4.9142669e-14 Z" id="Path-6" fill="#151A7F"></path>
                    <path d="M79.6773085,-2.69993369e-17 C80.839247,4.6372037 73.355848,9.46725364 70.5613691,10.7928424 C64.2418422,10.7928424 54.9611295,10.7928424 42.7192311,10.7928424 L33.5395846,-1.02839037e-15 C59.6469463,-3.31462278e-14 75.0261876,-3.28124308e-14 79.6773085,-2.69993369e-17 Z" id="Path-6-Copy-3" fill="url(#linearGradient-1)"></path>
                    <path d="M17.2555403,10.7987534 C4.8332261,17.9387749 10.4139711,32.9325267 21.0521691,32.5238821 C21.4934899,32.5069297 22.0184425,32.5959848 22.4759774,32.5238821 C26.1282271,32.5238821 58.3359573,32.5238821 59.4068063,32.5238821 C61.5515925,33.6469329 62.6184278,35.5205818 62.6194442,37.805266 C62.6204605,40.0899502 61.3250298,41.8120439 59.4068063,42.7135058 C58.8646909,42.7135058 23.0929945,42.5805698 18.7887746,42.5805698 C16.197868,42.4390393 15.0212533,41.9486911 14.576465,41.8196417 C11.5537869,40.9426519 6.68034216,36.7111518 5.53559688,30.5 C3.91755406,21.7208334 6.67831313,14.4310935 17.2555403,10.7987534 Z" id="Path-6-Copy-2" fill="url(#linearGradient-2)"></path>
                </g>
            </g>
        </g>
    </g>
</svg>