<?xml version="1.0" encoding="UTF-8"?>
<svg width="16px" height="16px" viewBox="0 0 16 16" version="1.1" xmlns="http://www.w3.org/2000/svg" xmlns:xlink="http://www.w3.org/1999/xlink">
    <!-- Generator: Sketch 40.1 (33804) - http://www.bohemiancoding.com/sketch -->
    <title>edit-2</title>
    <desc>Created with Sketch.</desc>
    <defs>
        <filter x="-50%" y="-50%" width="200%" height="200%" filterUnits="objectBoundingBox" id="filter-1">
            <feOffset dx="4" dy="-3" in="SourceAlpha" result="shadowOffsetOuter1"></feOffset>
            <feGaussianBlur stdDeviation="88" in="shadowOffsetOuter1" result="shadowBlurOuter1"></feGaussianBlur>
            <feColorMatrix values="0 0 0 0 0.669902055   0 0 0 0 0.696164427   0 0 0 0 0.776971726  0 0 0 0.27 0" type="matrix" in="shadowBlurOuter1" result="shadowMatrixOuter1"></feColorMatrix>
            <feMerge>
                <feMergeNode in="shadowMatrixOuter1"></feMergeNode>
                <feMergeNode in="SourceGraphic"></feMergeNode>
            </feMerge>
        </filter>
    </defs>
    <g id="TVs" stroke="none" stroke-width="1" fill="none" fill-rule="evenodd">
        <g id="2.3.1-Add-new-TV-modal" transform="translate(-954.000000, -468.000000)" fill="#2C838E">
            <g id="Add-TV-modal" filter="url(#filter-1)" transform="translate(428.000000, 74.000000)">
                <g id="Fields" transform="translate(30.000000, 65.000000)">
                    <g id="Fallback-Media" transform="translate(0.000000, 325.000000)">
                        <g id="edit-2" transform="translate(496.000000, 4.000000)">
                            <g id="Group">
                                <path d="M0.1,15.25 C0.1,15.4333333 0.166666667,15.6166667 0.3,15.75 C0.433333333,15.8833333 0.6,15.95 0.783333333,15.95 L4.01666667,15.9333333 C4.2,15.9333333 4.36666667,15.8666667 4.5,15.7333333 L15.6666667,4.56666667 C15.9333333,4.3 15.9333333,3.86666667 15.6666667,3.58333333 L12.4666667,0.35 C12.2,0.0833333333 11.7666667,0.0833333333 11.4833333,0.35 L9.25,2.6 L0.316666667,11.5166667 C0.2,11.65 0.116666667,11.8166667 0.116666667,12 L0.1,15.25 Z M14.2333333,4.06666667 L12.9666667,5.33333333 L10.7166667,3.08333333 L11.9833333,1.81666667 L14.2333333,4.06666667 Z M9.73333333,4.06666667 L11.9833333,6.31666667 L3.75,14.5333333 L1.48333333,14.55 L1.5,12.3 L9.73333333,4.06666667 Z" id="Shape"></path>
                            </g>
                        </g>
                    </g>
                </g>
            </g>
        </g>
    </g>
</svg>