<?xml version="1.0" encoding="UTF-8"?>
<svg width="16px" height="14px" viewBox="0 0 16 14" version="1.1" xmlns="http://www.w3.org/2000/svg" xmlns:xlink="http://www.w3.org/1999/xlink">
    <!-- Generator: Sketch 40.1 (33804) - http://www.bohemiancoding.com/sketch -->
    <title>cloud-upload-arrow copy</title>
    <desc>Created with Sketch.</desc>
    <defs>
        <filter x="-50%" y="-50%" width="200%" height="200%" filterUnits="objectBoundingBox" id="filter-1">
            <feOffset dx="4" dy="-3" in="SourceAlpha" result="shadowOffsetOuter1"></feOffset>
            <feGaussianBlur stdDeviation="88" in="shadowOffsetOuter1" result="shadowBlurOuter1"></feGaussianBlur>
            <feColorMatrix values="0 0 0 0 0.669902055   0 0 0 0 0.696164427   0 0 0 0 0.776971726  0 0 0 0.27 0" type="matrix" in="shadowBlurOuter1" result="shadowMatrixOuter1"></feColorMatrix>
            <feMerge>
                <feMergeNode in="shadowMatrixOuter1"></feMergeNode>
                <feMergeNode in="SourceGraphic"></feMergeNode>
            </feMerge>
        </filter>
    </defs>
    <g id="TVs" stroke="none" stroke-width="1" fill="none" fill-rule="evenodd">
        <g id="2.3.2-Fallback-Media-modal" transform="translate(-1118.000000, -119.000000)" fill="#2C838E">
            <g id="Add-Media-modal" filter="url(#filter-1)" transform="translate(166.000000, 40.000000)">
                <g id="Media-line" transform="translate(952.000000, 75.000000)">
                    <g id="upload-the-estimate">
                        <g id="cloud-upload-arrow" transform="translate(1.000000, 4.000000)">
                            <g id="Capa_1">
                                <g id="Group">
                                    <path d="M7.61308053,13.0885655 C7.88841106,13.0885655 8.11368149,12.8632951 8.11368149,12.5879645 L8.11368149,5.96336478 L10.1661454,7.79055829 C10.2579321,7.87398197 10.3830823,7.91570853 10.4998696,7.91570853 C10.6417163,7.91570853 10.7752001,7.8573149 10.8753203,7.74883173 C11.0588642,7.54025781 11.0421971,7.22320072 10.8335938,7.03965685 L7.94680469,4.47825841 C7.75489784,4.30304808 7.45453726,4.31138161 7.27099339,4.49495493 L4.59277825,7.05635337 C4.39253786,7.24826022 4.38420433,7.56528786 4.57608173,7.76552825 C4.76798858,7.96576863 5.08501623,7.97410216 5.28525661,7.78222476 L7.10411659,6.03845493 L7.10411659,12.5963275 C7.11247957,12.8632951 7.33775,13.0885655 7.61308053,13.0885655 L7.61308053,13.0885655 Z" id="Shape"></path>
                                    <path d="M13.2198113,5.58791406 C13.2615379,5.15406971 13.2865679,4.43653185 13.0779645,3.65226683 C12.777604,2.49255108 11.9182488,0.957355168 9.5570613,0.248180288 C8.2554988,-0.143966947 7.09578305,-0.0438467548 6.11961118,0.540207332 C4.80135216,1.33283534 4.18396394,2.79291166 3.95033053,3.53547957 C3.39133594,3.493753 2.44019411,3.51878305 1.60583954,4.05277704 C0.846604567,4.53668149 0.354337139,5.31261298 0.129066707,6.363875 C-0.179627404,7.8323143 0.287580529,8.79178966 0.729787861,9.33411719 C1.47235577,10.2518954 2.68213161,10.6607097 3.54984976,10.6607097 L4.94319892,10.6607097 C5.21852945,10.6607097 5.44379988,10.4354393 5.44379988,10.1601088 C5.44379988,9.88477825 5.21852945,9.65950781 4.94319892,9.65950781 L3.55821274,9.65950781 C2.94915805,9.65950781 2.05640986,9.35914724 1.51408233,8.70003245 C1.071875,8.14937139 0.938391226,7.43183353 1.11360156,6.56414483 C1.27211538,5.78821334 1.62253606,5.22921875 2.13983353,4.89546514 C3.04091526,4.33647055 4.20063101,4.58677103 4.20899399,4.58677103 C4.34247776,4.62013462 4.47599099,4.59510457 4.59277825,4.52001442 C4.7095655,4.44492428 4.7846851,4.32810757 4.80971514,4.20295733 C4.80971514,4.18626082 5.22689243,2.25061358 6.63690865,1.40792548 C7.36278005,0.97408113 8.24716526,0.907324519 9.27339724,1.21601863 C12.9027542,2.30064423 12.2102464,5.64633714 12.1768828,5.78818389 C12.1184892,6.03848438 12.2603065,6.28878486 12.4939399,6.37220853 C12.5773636,6.39723858 14.4546172,7.09807993 13.9874093,8.64994291 C13.6703522,9.71790144 12.3771526,9.67617488 12.3270925,9.67617488 L12.3020625,9.67617488 L10.4498389,9.67617488 C10.1745084,9.67617488 9.94923798,9.90144531 9.94923798,10.1767758 C9.94923798,10.4521064 10.1745084,10.6773768 10.4498389,10.6773768 L12.293729,10.6773768 L12.3938492,10.6773768 C13.1614471,10.6773768 14.5380998,10.3269561 14.9552476,8.93360697 C15.4725156,7.20650421 14.2043167,6.08015204 13.2198113,5.58791406 L13.2198113,5.58791406 Z" id="Shape"></path>
                                </g>
                            </g>
                        </g>
                    </g>
                </g>
            </g>
        </g>
    </g>
</svg>