<?xml version="1.0" encoding="UTF-8"?>
<svg width="21px" height="21px" viewBox="0 0 21 21" version="1.1" xmlns="http://www.w3.org/2000/svg" xmlns:xlink="http://www.w3.org/1999/xlink">
    <!-- Generator: Sketch 47 (45396) - http://www.bohemiancoding.com/sketch -->
    <title>check-mark-button</title>
    <desc>Created with Sketch.</desc>
    <defs></defs>
    <g id="Landing-page" stroke="none" stroke-width="1" fill="none" fill-rule="evenodd">
        <g id="Landing-+-copywriting" transform="translate(-708.000000, -1415.000000)" fill-rule="nonzero" fill="#00207F">
            <g id="content" transform="translate(-415.000000, 0.000000)">
                <g id="Benefits" transform="translate(1123.000000, 1288.000000)">
                    <g id="check-mark-button" transform="translate(0.000000, 127.000000)">
                        <path d="M10.444125,0 C4.68525,0 0,4.68525 0,10.444125 C0,16.203 4.68525,20.88825 10.444125,20.88825 C16.203,20.88825 20.88825,16.203 20.88825,10.444125 C20.887875,4.68525 16.203,0 10.444125,0 Z M10.444125,19.204875 C5.613375,19.204875 1.683375,15.274875 1.683375,10.44375 C1.683375,5.613 5.613375,1.683 10.444125,1.683 C15.274875,1.683 19.204875,5.613375 19.204875,10.444125 C19.204875,15.274875 15.274875,19.204875 10.444125,19.204875 Z" id="Shape"></path>
                        <path d="M13.773375,7.11375 L8.898375,11.989125 L7.1145,10.20525 C6.786,9.876375 6.253125,9.876375 5.924625,10.20525 C5.59575,10.53375 5.59575,11.066625 5.924625,11.395125 L8.303625,13.774125 C8.467875,13.938375 8.6835,14.020875 8.89875,14.020875 C9.114,14.020875 9.32925,13.93875 9.4935,13.774125 L14.963625,8.304 C15.292125,7.975125 15.292125,7.442625 14.963625,7.11375 C14.63475,6.78525 14.10225,6.78525 13.773375,7.11375 Z" id="Shape"></path>
                    </g>
                </g>
            </g>
        </g>
    </g>
</svg>